<svg width="125" height="125" xmlns="http://www.w3.org/2000/svg">
 <!-- Created with Method Draw - http://github.com/duopixel/Method-Draw/ -->

 <g>
  <title>background</title>
  <rect fill="none" id="canvas_background" height="127" width="127" y="-1" x="-1"/>
  <g display="none" overflow="visible" y="0" x="0" height="100%" width="100%" id="canvasGrid">
   <rect fill="url(#gridpattern)" stroke-width="0" y="0" x="0" height="100%" width="100%"/>
  </g>
 </g>
 <g>
  <title>Layer 1</title>
  <g transform="rotate(179.80418395996094 62.446372985839844,63.501251220703125) matrix(1.1952162501344799,0,0,1.4191112304528588,6.226127088069916,1.2105008447169325) " id="svg_9">
   <title>Layer 1</title>
   <path d="m87.752937,37.594059l-65.14434,0l15.67536,-14.55332c1.33681,-1.24113 1.9679,-2.72166 1.9679,-4.3471c0,-3.09967 -2.75846,-6.30014 -6.78587,-6.30014c-1.80165,0 -3.37258,0.60797 -4.68225,1.82704l-27.00098,25.06826c-1.11288,1.03322 -2.24612,2.309 -2.24612,4.6054s0.94663,3.40208 2.19184,4.55815l27.05526,25.11551c1.30967,1.21908 2.8806,1.82704 4.68225,1.82704c4.0308,0 6.78587,-3.20047 6.78587,-6.30014c0,-1.62543 -0.63109,-3.10597 -1.9679,-4.34709l-15.67536,-14.55333l65.14434,0c3.7458,0 6.78587,-2.82246 6.78587,-6.30014s-3.04007,-6.30014 -6.78587,-6.30014z" id="svg_5" stroke="null" fill="#ffc400"/>
  </g>
  <g id="svg_10"/>
 </g>
</svg>