<svg width="150" height="150" xmlns="http://www.w3.org/2000/svg">
 <title/>
 <desc/>

 <g>
  <title>background</title>
  <rect fill="none" id="canvas_background" height="152" width="152" y="-1" x="-1"/>
 </g>
 <g>
  <title>Layer 1</title>
  <path fill="#fcba03" stroke="null" id="Hamburger" d="m2.000029,19.8002c0,-7.621615 5.196253,-13.800149 11.701088,-13.800149l122.599348,0c6.462319,0 11.701088,6.125403 11.701088,13.800149c0,7.621615 -5.196253,13.800149 -11.701088,13.800149l-122.599348,0c-6.462319,0 -11.701088,-6.125403 -11.701088,-13.800149l0,0zm0,55.200597c0,-7.621615 5.196253,-13.800149 11.701088,-13.800149l122.599348,0c6.462319,0 11.701088,6.125403 11.701088,13.800149c0,7.621615 -5.196253,13.800149 -11.701088,13.800149l-122.599348,0c-6.462319,0 -11.701088,-6.125403 -11.701088,-13.800149l0,0zm0,55.200597c0,-7.621615 5.196253,-13.800149 11.701088,-13.800149l122.599348,0c6.462319,0 11.701088,6.125403 11.701088,13.800149c0,7.621615 -5.196253,13.800149 -11.701088,13.800149l-122.599348,0c-6.462319,0 -11.701088,-6.125403 -11.701088,-13.800149l0,0z"/>
 </g>
</svg>